<svg id="Capa_1" enable-background="new 0 0 498.078 498.078" height="512" viewBox="0 0 498.078 498.078" width="512" xmlns="http://www.w3.org/2000/svg"><g><path d="m308.018 318.729h-117.95v103.54l7.03 20.865h101.832l9.158-20.865z" fill="#a79ba7"/><g><g id="XMLID_248_"><g><path d="m248.501 387.779h59.563l-.047-69.05h-79.557-38.393v69.05 34.49l7.03 20.865h38.393l-7.03-20.865v-14.449c0-11.068 8.973-20.041 20.041-20.041z" fill="#918291"/><path d="m474.738 34.079h-451.32c-12.89 0-23.34 10.45-23.34 23.33v269.655c-.1.177-.107.275 0 .275 2.03 0 47.858 22.72 47.858 22.72h432.062l18.08-22.72v-269.93c0-12.88-10.45-23.33-23.34-23.33z" fill="#c8effe"/><path d="m70.121 327.129v-292.03c0-.342.011-.681.026-1.02h-46.729c-12.89 0-23.34 10.45-23.34 23.33v269.655c-.1.177-.107.275 0 .275 2.03 0 47.858 22.72 47.858 22.72h41.181c-10.814-2.037-18.996-11.526-18.996-22.93z" fill="#99e6fc"/><path d="m498.078 327.339v22.1c0 12.89-10.45 23.34-23.34 23.34h-451.32c-12.89 0-23.34-10.45-23.34-23.34v-22.1h2.03z" fill="#b5adb6"/></g></g><path d="m93.461 350.469c-12.82 0-23.221-10.337-23.335-23.13h-68.018-2.03v22.1c0 12.89 10.45 23.34 23.34 23.34h451.32c12.545 0 22.774-9.898 23.314-22.31z" fill="#a79ba7"/><g id="XMLID_250_"><g><path d="m353.798 454.039c4.4 3.06 2.24 9.96-3.11 9.96h-203.22c-5.35 0-7.51-6.9-3.11-9.96l45.71-31.77h84.44 33.58z" fill="#b5adb6"/></g></g><path d="m182.853 454.039 45.71-31.77h-38.495l-45.71 31.77c-4.4 3.06-2.24 9.96 3.11 9.96h38.495c-5.35 0-7.51-6.9-3.11-9.96z" fill="#a79ba7"/><g id="XMLID_249_"><g><path d="m159.028 132.539v-.01c-10.83-5.79-23.21-9.07-36.36-9.07-42.68 0-77.29 34.6-77.29 77.29 0 15.65 4.65 30.21 12.66 42.38l44.165 4.956 66.907-54.31z" fill="#fd8087"/><path d="m45.378 200.749c0 15.65 4.65 30.21 12.66 42.38l12.083 1.356v-100.395c-15.212 14.115-24.743 34.269-24.743 56.659z" fill="#fe646f"/><path d="m199.958 200.749c0 10.24-1.99 20.01-5.61 28.95l-71.68-28.95 36.36-68.21c24.36 12.99 40.93 38.66 40.93 68.21z" fill="#86e8d0"/><path d="m122.668 200.749 71.68 28.95c-11.45 28.34-39.23 48.34-71.68 48.34-27.03 0-50.83-13.88-64.63-34.91z" fill="#ffde55"/></g></g><g fill="#99e6fc"><path d="m447.41 132.526h-182.726c-3.713 0-6.724-3.01-6.724-6.724v-24.741c0-3.713 3.01-6.724 6.724-6.724h182.726c3.713 0 6.724 3.01 6.724 6.724v24.741c0 3.713-3.01 6.724-6.724 6.724z"/><path d="m373.557 206.921h-108.873c-3.713 0-6.724-3.01-6.724-6.724v-24.741c0-3.713 3.01-6.724 6.724-6.724h108.873c3.713 0 6.724 3.01 6.724 6.724v24.741c0 3.714-3.011 6.724-6.724 6.724z"/><path d="m327.054 281.316h-62.37c-3.713 0-6.724-3.01-6.724-6.724v-24.741c0-3.713 3.01-6.724 6.724-6.724h62.37c3.713 0 6.724 3.01 6.724 6.724v24.741c-.001 3.714-3.011 6.724-6.724 6.724z"/></g></g></g></svg>