<svg height="512" viewBox="0 0 64 64" width="512" xmlns="http://www.w3.org/2000/svg"><g id="Layer_29" data-name="Layer 29"><path d="m22 51h20a10 10 0 0 1 10 10v1h-40v-1a10 10 0 0 1 10-10z" fill="#c8cded"/><path d="m36 51 4 3-4 4-4-4-4 4-4-4 4-3z" fill="#78a0d4"/><g fill="#f2b9a1"><path d="m28 46v5l4 3 4-3v-5"/><path d="m24 34h-3a3 3 0 0 0 -3 3 3 3 0 0 0 3 3h3"/><path d="m40 34h3a3 3 0 0 1 3 3 3 3 0 0 1 -3 3h-3"/></g><path d="m41 34h2l.859-4.293a7.279 7.279 0 0 0 .141-1.428 7.279 7.279 0 0 0 -7.279-7.279h-2.221a1.5 1.5 0 0 1 -1.5-1.5 1.5 1.5 0 0 0 -1.5-1.5h-3.1a8.4 8.4 0 0 0 -8.4 8.4 8.432 8.432 0 0 0 .084 1.188l.916 6.412h2v-.929a5 5 0 0 1 1.464-3.535l2.829-2.829a2.414 2.414 0 0 1 1.707-.707 2.414 2.414 0 0 1 1.707.707l3.222 3.222a1.516 1.516 0 0 0 2.142 0 1.515 1.515 0 0 1 1.98-.141l2.149 1.612a2 2 0 0 1 .8 1.6z" fill="#c18e59"/><path d="m41 33v6a9 9 0 0 1 -9 9 9 9 0 0 1 -9-9v-5.929a5 5 0 0 1 1.464-3.535l2.829-2.829a2.414 2.414 0 0 1 1.707-.707 2.414 2.414 0 0 1 1.707.707l3.222 3.222a1.516 1.516 0 0 0 2.142 0 1.515 1.515 0 0 1 1.98-.141l2.149 1.612a2 2 0 0 1 .8 1.6z" fill="#fbe1ca"/><path d="m9 19 5 3-2-5 4-4h-5l-2-5-2 5h-5l4 4-2 5z" fill="#f9d266"/><path d="m55 19 5 3-2-5 4-4h-5l-2-5-2 5h-5l4 4-2 5z" fill="#f9d266"/><path d="m23 13 5 3-2-5 4-4h-5l-2-5-2 5h-5l4 4-2 5z" fill="#fce797"/><path d="m41 13 5 3-2-5 4-4h-5l-2-5-2 5h-5l4 4-2 5z" fill="#fce797"/></g></svg>