<svg height="512" viewBox="0 0 55 59" width="512" xmlns="http://www.w3.org/2000/svg"><g id="050---Sales" fill="none" transform="translate(-1)"><circle id="Oval" cx="47" cy="9" fill="#f9eab0" r="8"/><path id="Shape" d="m47 23c-3.31 0-6 .9-6 2v32c0 1.1 2.69 2 6 2s6-.9 6-2v-32c0-1.1-2.69-2-6-2z" fill="#f3d55b"/><path id="Shape" d="m35 48v8c0 1.6568542-1.3431458 3-3 3h-28c-1.65685425 0-3-1.3431458-3-3v-8c0 1.6568542 1.34314575 3 3 3h28c1.6568542 0 3-1.3431458 3-3z" fill="#464f5d"/><path id="Shape" d="m34.3 2.08c-.3361178-.42276911-.7877202-.73889078-1.3-.91-.3206504-.11538333-.6592342-.17294256-1-.17h-28c-1.65685425 0-3 1.34314575-3 3v47c-.00987973.1197966-.00987973.2402034 0 .36.06270823.5751949.29604321 1.1184823.67 1.56.575531.6910368 1.43071554 1.0874313 2.33 1.08h28c1.6568542 0 3-1.3431458 3-3v-47c-.001438-.70220003-.249153-1.38164699-.7-1.92z" fill="#2fa8cc"/><path id="Shape" d="m21.92 5c-9.3 5.3-20.26 17.64-20.92 46.36-.00987973-.1197966-.00987973-.2402034 0-.36v-47c0-1.65685425 1.34314575-3 3-3h4l2.86 3.05c.5583664.62447418 1.3524003.98704672 2.19 1z" fill="#67b9cc"/><path id="Shape" d="m33 1.17c-2.3502946.33996506-4.6526594.95415273-6.86 1.83l1.86-2h4c.3407658-.00294256.6793496.05461667 1 .17z" fill="#67b9cc"/><path id="Shape" d="m28 1-2.86 3.05c-.5552143.59345073-1.3274375.93626008-2.14.95h-9.9c-.8375997-.01295328-1.6316336-.37552582-2.19-1l-2.91-3z" fill="#464f5d"/><ellipse id="Oval" cx="47" cy="25" fill="#f9eab0" rx="6" ry="2"/><g fill="#f0c419"><path id="Shape" d="m53 53v4c0 1.1-2.69 2-6 2s-6-.9-6-2v-4c0 1.1 2.69 2 6 2s6-.9 6-2z"/><path id="Shape" d="m53 45v4c0 1.1-2.69 2-6 2s-6-.9-6-2v-4c0 1.1 2.69 2 6 2s6-.9 6-2z"/><path id="Shape" d="m53 37v4c0 1.1-2.69 2-6 2s-6-.9-6-2v-4c0 1.1 2.69 2 6 2s6-.9 6-2z"/><path id="Shape" d="m53 29v4c0 1.1-2.69 2-6 2s-6-.9-6-2v-4c0 1.1 2.69 2 6 2s6-.9 6-2z"/><path id="Shape" d="m47 18c-4.9705627 0-9-4.0294373-9-9 0-4.97056275 4.0294373-9 9-9s9 4.02943725 9 9c0 4.9705627-4.0294373 9-9 9zm0-16c-3.8659932 0-7 3.13400675-7 7 0 3.8659932 3.1340068 7 7 7s7-3.1340068 7-7c0-3.86599325-3.1340068-7-7-7z"/><path id="Shape" d="m47 10c-1.6568542 0-3-1.34314575-3-3s1.3431458-3 3-3 3 1.34314575 3 3c0 .55228475-.4477153 1-1 1s-1-.44771525-1-1-.4477153-1-1-1-1 .44771525-1 1 .4477153 1 1 1 1 .44771525 1 1-.4477153 1-1 1z"/><path id="Shape" d="m47 14c-1.6568542 0-3-1.3431458-3-3 0-.5522847.4477153-1 1-1s1 .4477153 1 1 .4477153 1 1 1 1-.4477153 1-1-.4477153-1-1-1-1-.44771525-1-1 .4477153-1 1-1c1.6568542.00000003 2.9999999 1.34314578 2.9999999 3 0 1.6568542-1.3431457 3-2.9999999 3z"/></g><path id="Shape" d="m7 37h3c.5522847 0 1 .4477153 1 1v10h-5v-10c0-.5522847.44771525-1 1-1z" fill="#ff5364"/><path id="Shape" d="m16 30h3c.5522847 0 1 .4477153 1 1v17h-5v-17c0-.5522847.4477153-1 1-1z" fill="#955ba5"/><path id="Shape" d="m25 24h3c.5522847 0 1 .4477153 1 1v23h-5v-23c0-.5522847.4477153-1 1-1z" fill="#f3d55b"/><path id="Shape" d="m6 33c-.41869957.0000322-.79308986-.2607843-.93814676-.6535538-.14505689-.3927694-.03006492-.8343237.28814676-1.1064462l19.96-17.24h-2.31c-.5522847 0-1-.4477153-1-1s.4477153-1 1-1h5c.4186996-.0000322.7930899.2607843.9381468.6535538.1450569.3927694.0300649.8343237-.2881468 1.1064462l-22 19c-.18114184.1549056-.41165548.2400183-.65.24z" fill="#e64c3c"/><path id="Shape" d="m28 18c-.5522847 0-1-.4477153-1-1v-4c0-.5522847.4477153-1 1-1s1 .4477153 1 1v4c0 .5522847-.4477153 1-1 1z" fill="#e64c3c"/><path id="Shape" d="m31 49h-26c-.55228475 0-1-.4477153-1-1s.44771525-1 1-1h26c.5522847 0 1 .4477153 1 1s-.4477153 1-1 1z" fill="#3d324c"/></g></svg>