<svg height="512pt" viewBox="-83 0 512 512.001" width="512pt" xmlns="http://www.w3.org/2000/svg"><path d="m206.449219 412.902344h-24.773438v16.515625h24.773438c4.566406 0 8.257812-3.691407 8.257812-8.257813 0-4.5625-3.691406-8.257812-8.257812-8.257812zm0 0" fill="#f6d190"/><path d="m344.800781 147.253906c-.613281-3.980468-4.136719-6.867187-8.164062-6.867187h-9.863281c-4.039063-18.820313-11.488282-36.347657-21.609376-51.996094l7.023438-7.027344c2.847656-2.847656 3.296875-7.378906.917969-10.625-5.105469-6.964843-10.765625-13.648437-17.0625-19.945312-6.292969-6.296875-12.976563-11.957031-19.945313-17.0625-3.246094-2.378907-7.777344-1.925781-10.625.917969l-7.023437 7.027343c-15.652344-10.125-33.175781-17.574219-52-21.609375v-9.867187c0-4.023438-2.886719-7.546875-6.863281-8.160157-8.535157-1.316406-17.265626-2.039062-26.167969-2.039062-8.902344 0-17.632813.722656-26.167969 2.039062-3.976562.613282-6.863281 4.136719-6.863281 8.160157v9.867187c-18.820313 4.035156-36.347657 11.484375-52 21.609375l-7.023438-7.027343c-2.847656-2.847657-7.378906-3.296876-10.625-.917969-6.964843 5.105469-13.652343 10.765625-19.945312 17.0625-6.296875 6.296875-11.957031 12.980469-17.0625 19.945312-2.378907 3.246094-1.929688 7.777344.917969 10.625l7.027343 7.027344c-10.125 15.648437-17.574219 33.175781-21.609375 51.996094h-9.863281c-4.027344 0-7.550781 2.886719-8.164063 6.867187-1.316406 8.53125-2.039062 17.261719-2.039062 26.164063 0 8.902343.722656 17.632812 2.039062 26.167969.613282 3.980468 4.136719 6.863281 8.164063 6.863281h9.863281c4.035156 18.824219 11.484375 36.347656 21.609375 52l-7.027343 7.023437c-2.847657 2.847656-3.296876 7.382813-.914063 10.628906 5.101563 6.964844 10.765625 13.648438 17.058594 19.945313 6.296875 6.292969 12.980469 11.957031 19.945312 17.058594 3.246094 2.382812 7.78125 1.929687 10.628907-.917969l7.023437-7.023438c15.652344 10.121094 33.175781 17.570313 51.996094 21.609376v9.863281c0 4.027343 2.886719 7.550781 6.867187 8.164062 8.535156 1.316407 17.261719 2.039063 26.167969 2.039063 8.902344 0 17.632813-.722656 26.164063-2.039063 3.980468-.613281 6.867187-4.136719 6.867187-8.164062v-9.863281c18.820313-4.039063 36.34375-11.488282 51.996094-21.609376l7.027343 7.023438c2.847657 2.847656 7.378907 3.300781 10.625.917969 6.96875-5.101563 13.648438-10.765625 19.945313-17.058594 6.296875-6.296875 11.957031-12.980469 17.0625-19.945313 2.378906-3.246093 1.929687-7.78125-.917969-10.628906l-7.023437-7.023437c10.121093-15.652344 17.570312-33.175781 21.605469-52h9.867187c4.023437 0 7.550781-2.882813 8.160156-6.863281 1.320313-8.535157 2.039063-17.265626 2.039063-26.167969 0-8.902344-.722656-17.632813-2.039063-26.164063zm-171.382812 133.519532c-59.289063 0-107.355469-48.0625-107.355469-107.355469 0-59.289063 48.066406-107.351563 107.355469-107.351563 59.289062 0 107.355469 48.0625 107.355469 107.355469 0 59.289063-48.066407 107.351563-107.355469 107.351563zm0 0" fill="#c8c5c9"/><path d="m312.1875 265.472656-7.023438-7.023437c.046876-.078125-.050781.074219 0 0-11.394531 7.339843-23.644531 13.027343-36.789062 17.257812-8.402344 2.707031-14.648438-7.621093-8.335938-13.792969 25.910157-25.339843 40.746094-61.9375 36.542969-101.90625-6.019531-57.265624-52.488281-103.734374-109.75-109.753906-39.96875-4.203125-76.570312 10.636719-101.910156 36.546875-6.171875 6.308594-16.496094.066407-13.792969-8.335937 4.234375-13.144532 9.921875-25.398438 17.261719-36.792969-.078125.050781.074219-.046875 0 0l-7.027344-7.023437c-2.847656-2.847657-7.378906-3.296876-10.625-.917969-6.964843 5.105469-13.648437 10.765625-19.945312 17.058593-6.296875 6.296876-11.957031 12.980469-17.0625 19.945313-2.378907 3.25-1.929688 7.78125.917969 10.628906l7.027343 7.023438c-10.125 15.652343-17.574219 33.175781-21.609375 52h-9.863281c-4.027344 0-7.550781 2.886719-8.164063 6.863281-1.316406 8.535156-2.039062 17.265625-2.039062 26.167969 0 8.90625.722656 17.632812 2.039062 26.167969.613282 3.980468 4.136719 6.863281 8.164063 6.863281h9.863281c4.035156 18.824219 11.484375 36.347656 21.609375 52l-7.027343 7.023437c-2.847657 2.847656-3.296876 7.378906-.917969 10.628906 5.105469 6.964844 10.765625 13.648438 17.0625 19.945313 6.296875 6.292969 12.980469 11.957031 19.945312 17.058594 3.246094 2.382812 7.777344 1.929687 10.625-.917969l7.027344-7.023438c15.652344 10.121094 33.175781 17.570313 51.996094 21.609376v9.863281c0 4.027343 2.886719 7.550781 6.867187 8.164062 8.535156 1.316407 17.261719 2.039063 26.167969 2.039063 8.902344 0 17.632813-.722656 26.167969-2.039063 3.976562-.613281 6.863281-4.136719 6.863281-8.164062v-9.863281c18.824219-4.039063 36.347656-11.488282 52-21.609376l7.023437 7.023438c2.847657 2.847656 7.378907 3.300781 10.625.917969 6.96875-5.101563 13.652344-10.765625 19.945313-17.058594 6.296875-6.296875 11.957031-12.980469 17.0625-19.945313 2.378906-3.25 1.925781-7.78125-.921875-10.628906zm-138.769531-199.40625c59.289062 0 107.355469 48.0625 107.355469 107.355469 0 59.289063-48.066407 107.351563-107.355469 107.351563-59.289063 0-107.355469-48.0625-107.355469-107.355469 0-59.289063 48.066406-107.351563 107.355469-107.351563zm0 0" fill="#b6b1b7"/><path d="m160.113281 108.652344c-26.144531 5.101562-47.03125 26.441406-51.683593 52.667968-5.667969 31.949219 11.65625 60.613282 38.160156 72.402344 6.117187 2.722656 10.3125 8.484375 10.3125 15.179688v254.839844c0 4.558593 3.699218 8.257812 8.257812 8.257812h16.515625c4.5625 0 8.257813-3.699219 8.257813-8.257812v-254.851563c0-6.6875 4.195312-12.445313 10.308594-15.164063 23.109374-10.277343 39.242187-33.382812 39.242187-60.304687 0-40.839844-37.050781-73.019531-79.371094-64.769531zm13.304688 64.765625c-9.121094 0-16.515625-7.394531-16.515625-16.515625s7.394531-16.515625 16.515625-16.515625c9.121093 0 16.515625 7.394531 16.515625 16.515625s-7.394532 16.515625-16.515625 16.515625zm0 0" fill="#ffe09f"/><g fill="#f6d190"><path d="m214.707031 454.195312h-24.773437v33.03125h24.773437c4.5625 0 8.257813-3.699218 8.257813-8.257812v-16.515625c0-4.5625-3.695313-8.257813-8.257813-8.257813zm0 0"/><path d="m173.417969 246.953125c0-14.296875-7.804688-27.050781-19.75-34.902344-17.945313-11.789062-29.796875-32.066406-29.796875-55.148437 0-14.023438 4.300781-27.109375 11.757812-37.804688-14.03125 9.789063-24.132812 24.933594-27.199218 42.226563-5.667969 31.945312 11.65625 60.613281 38.160156 72.398437 6.117187 2.722656 10.3125 8.484375 10.3125 15.179688v254.839844c0 4.5625 3.695312 8.257812 8.257812 8.257812h8.257813zm0 0"/></g></svg>