<svg height="512pt" viewBox="0 -107 512 512" width="512pt" xmlns="http://www.w3.org/2000/svg"><path d="m426.667969 64h-212.269531c12.84375 25.75 20.269531 54.65625 20.269531 85.332031 0 30.679688-7.425781 59.585938-20.269531 85.335938h212.269531c47.058593 0 85.332031-38.273438 85.332031-85.335938 0-47.058593-38.273438-85.332031-85.332031-85.332031zm0 0" fill="#00bcd4"/><path d="m298.667969 149.332031c0 82.476563-66.859375 149.335938-149.335938 149.335938-82.472656 0-149.332031-66.859375-149.332031-149.335938 0-82.472656 66.859375-149.332031 149.332031-149.332031 82.476563 0 149.335938 66.859375 149.335938 149.332031zm0 0" fill="#607d8b"/><path d="m213.332031 149.332031c0 35.347657-28.652343 64-64 64-35.34375 0-64-28.652343-64-64 0-35.34375 28.65625-64 64-64 35.347657 0 64 28.65625 64 64zm0 0" fill="#fff"/></svg>