<svg id="Capa_1" enable-background="new 0 0 512 512" height="512" viewBox="0 0 512 512" width="512" xmlns="http://www.w3.org/2000/svg"><path d="m440.171 201.18h-159.94l49.665-188.368c2.755-10.451-10.539-17.414-17.561-9.198l-248.235 290.432c-5.64 6.598-.951 16.774 7.729 16.774h159.94l-49.665 188.368c-2.755 10.451 10.539 17.414 17.561 9.198l248.235-290.432c5.64-6.599.951-16.774-7.729-16.774z" fill="#688d97"/><g fill="#557983"><path d="m340.763 343.308-22.324 26.115-171.865-171.865 22.324-26.126z"/><path d="m280.23 201.184h-19.596c-6.757 0-11.684-6.395-9.961-12.928l42.887-162.666 18.78-21.974c7.016-8.221 20.315-1.257 17.554 9.199z"/><path d="m447.902 217.955-248.243 290.429c-7.016 8.221-20.315 1.257-17.554-9.199l3.369-12.774 229.462-268.455c5.635-6.603.948-16.771-7.726-16.771h32.966c8.674-.001 13.361 10.167 7.726 16.77z"/></g><path d="m482.192 499.319c-4.383 0-8.766-1.672-12.11-5.016l-452.385-452.385c-10.034-10.035-5.014-29.421 15.058-30.099 1.744-.059 4.185.9 5.418 2.133l456.13 456.13c6.688 6.689 6.688 17.532 0 24.221-3.344 3.344-7.728 5.016-12.111 5.016z" fill="#fb6672"/></svg>