<svg height="511pt" viewBox="-30 1 511 511.99987" width="511pt" xmlns="http://www.w3.org/2000/svg"><path d="m385.925781.00390625h-319.929687c-36.113282 0-65.496094 29.38281275-65.496094 65.49609375v327.503906c0 36.117188 29.382812 65.496094 65.496094 65.496094h319.929687c36.113281 0 65.496094-29.378906 65.496094-65.496094v-327.503906c0-36.113281-29.382813-65.49609375-65.496094-65.49609375zm0 0" fill="#ffe9cc"/><path d="m451.421875 65.5v327.503906c0 36.113282-29.378906 65.5-65.5 65.5h-159.960937v-458.503906h159.960937c36.121094 0 65.5 29.386719 65.5 65.5zm0 0" fill="#ffd399"/><path d="m385.925781.00390625h-319.929687c-36.171875 0-65.496094 29.32421875-65.496094 65.49999975v75.121094h450.921875v-75.125c0-36.171875-29.324219-65.49609375-65.496094-65.49609375zm0 0" fill="#ff5b5b"/><path d="m451.421875 65.5v75.128906h-225.460937v-140.628906h159.960937c36.175781 0 65.5 29.324219 65.5 65.5zm0 0" fill="#ff3939"/><path d="m149.164062 70.351562c0 9.996094-8.105468 18.101563-18.101562 18.101563-10 0-18.105469-8.105469-18.105469-18.101563 0-10 8.105469-18.101562 18.105469-18.101562 9.996094 0 18.101562 8.101562 18.101562 18.101562zm0 0" fill="#ffe9cc"/><path d="m338.960938 70.351562c0 9.996094-8.101563 18.101563-18.101563 18.101563-9.996094 0-18.101563-8.105469-18.101563-18.101563 0-10 8.105469-18.101562 18.101563-18.101562 10 0 18.101563 8.101562 18.101563 18.101562zm0 0" fill="#ffd399"/><path d="m218.15625 344.164062c-6.058594-6.058593-15.882812-6.058593-21.945312 0l-141.34375 141.347657c-6.0625 6.058593-6.0625 15.882812 0 21.941406 6.058593 6.0625 15.882812 6.0625 21.941406 0l141.347656-141.34375c6.058594-6.0625 6.058594-15.882813 0-21.945313zm0 0" fill="#0d91bd"/><path d="m366.363281 366.109375c-23.441406 23.449219-54.234375 35.171875-85.039062 35.179687-30.816407.011719-61.640625-11.707031-85.113281-35.179687-46.910157-46.910156-46.910157-123.238281 0-170.148437 23.523437-23.523438 54.316406-35.273438 85.113281-35.265626 30.773437.011719 61.535156 11.761719 85.039062 35.265626 47.023438 47.023437 47.011719 123.125 0 170.148437zm0 0" fill="#2fc0f0"/><path d="m366.363281 366.109375c-23.441406 23.449219-54.234375 35.171875-85.039062 35.179687v-240.59375c30.773437.011719 61.535156 11.761719 85.039062 35.265626 47.023438 47.023437 47.011719 123.125 0 170.148437zm0 0" fill="#0d91bd"/><path d="m70.410156 250.640625h60.652344c8.566406 0 15.515625-6.945313 15.515625-15.515625s-6.949219-15.515625-15.515625-15.515625h-60.652344c-8.566406 0-15.515625 6.945313-15.515625 15.515625s6.949219 15.515625 15.515625 15.515625zm0 0" fill="#2fc0f0"/><path d="m131.0625 294.695312h-60.652344c-8.566406 0-15.515625 6.945313-15.515625 15.515626 0 8.570312 6.949219 15.515624 15.515625 15.515624h60.652344c8.566406 0 15.515625-6.945312 15.515625-15.515624 0-8.570313-6.949219-15.515626-15.515625-15.515626zm0 0" fill="#2fc0f0"/><path d="m344.421875 344.171875c-34.796875 34.773437-91.429687 34.816406-126.269531 0-34.808594-34.820313-34.808594-91.453125 0-126.273437 34.886718-34.863282 91.324218-34.921876 126.269531 0 34.902344 34.921874 34.890625 91.359374 0 126.273437zm0 0" fill="#beebfa"/><path d="m344.421875 344.171875c-17.417969 17.40625-40.257813 26.085937-63.089844 26.097656v-178.539062c22.820313.007812 45.640625 8.730469 63.089844 26.167969 34.902344 34.921874 34.890625 91.359374 0 126.273437zm0 0" fill="#7ed8f6"/></svg>